<svg xmlns="http://www.w3.org/2000/svg" viewBox="0 0 480 96" shape-rendering="crispEdges">
  <rect width="480" height="96" fill="transparent"/>
  <!-- distant strip  silhouettes only, no text -->
  <rect x="0" y="52" width="36" height="44" fill="#1a2430"/>
  <rect x="34" y="44" width="22" height="52" fill="#151e28"/>
  <rect x="54" y="38" width="18" height="58" fill="#1a2430"/>
  <!-- welcome sign shape (abstract) -->
  <path d="M78 58 L98 52 L118 58 L118 72 L78 72 Z" fill="#141c24"/>
  <rect x="82" y="60" width="32" height="3" fill="#2a3544" opacity="0.5"/>
  <rect x="120" y="48" width="28" height="48" fill="#121820"/>
  <rect x="148" y="40" width="20" height="56" fill="#1a2430"/>
  <rect x="168" y="32" width="24" height="64" fill="#151e28"/>
  <rect x="194" y="36" width="16" height="60" fill="#1a2430"/>
  <!-- ferris wheel -->
  <circle cx="228" cy="44" r="22" fill="none" stroke="#1e2836" stroke-width="3"/>
  <circle cx="228" cy="44" r="4" fill="#243040"/>
  <rect x="222" y="64" width="12" height="32" fill="#141c24"/>
  <rect x="252" y="28" width="32" height="68" fill="#121820"/>
  <rect x="284" y="36" width="18" height="60" fill="#1a2430"/>
  <rect x="302" y="44" width="26" height="52" fill="#151e28"/>
  <rect x="328" y="24" width="22" height="72" fill="#121820"/>
  <rect x="350" y="40" width="20" height="56" fill="#1a2430"/>
  <rect x="370" y="48" width="30" height="48" fill="#151e28"/>
  <rect x="400" y="36" width="24" height="60" fill="#1a2430"/>
  <rect x="424" y="44" width="56" height="52" fill="#121820"/>
  <!-- sparse window lights -->
  <rect x="8" y="58" width="2" height="2" fill="#3d4a58" opacity="0.6"/>
  <rect x="172" y="48" width="2" height="2" fill="#4a5568" opacity="0.5"/>
  <rect x="174" y="56" width="2" height="2" fill="#3d4a58" opacity="0.4"/>
  <rect x="258" y="44" width="2" height="2" fill="#5a4a38" opacity="0.45"/>
  <rect x="262" y="52" width="2" height="2" fill="#3d4a58" opacity="0.4"/>
  <rect x="334" y="36" width="2" height="2" fill="#5a4a38" opacity="0.5"/>
  <rect x="338" y="48" width="2" height="2" fill="#3d4a58" opacity="0.35"/>
  <rect x="408" y="48" width="2" height="2" fill="#4a5568" opacity="0.45"/>
  <rect x="440" y="56" width="2" height="2" fill="#3d4a58" opacity="0.4"/>
</svg>
